<svg width="237" height="48" viewBox="0 0 237 48" fill="none" xmlns="http://www.w3.org/2000/svg">
<g clip-path="url(#clip0)">
<rect width="48" height="48" rx="6" fill="#4E4957"/>
<path d="M76.138 37.408C74.574 37.408 73.146 37.1473 71.854 36.626C70.562 36.1047 69.4627 35.334 68.556 34.314C67.6493 33.2713 66.9467 31.9907 66.448 30.472C65.9493 28.9307 65.7 27.1513 65.7 25.134C65.7 23.1167 65.9493 21.3487 66.448 19.83C66.9467 18.2887 67.6493 17.008 68.556 15.988C69.4627 14.9453 70.562 14.1633 71.854 13.642C73.146 13.1207 74.574 12.86 76.138 12.86C77.702 12.86 79.13 13.1207 80.422 13.642C81.714 14.1633 82.8133 14.9453 83.72 15.988C84.6267 17.008 85.3293 18.2887 85.828 19.83C86.3267 21.3487 86.576 23.1167 86.576 25.134C86.576 27.1513 86.3267 28.9307 85.828 30.472C85.3293 31.9907 84.6267 33.2713 83.72 34.314C82.8133 35.334 81.714 36.1047 80.422 36.626C79.13 37.1473 77.702 37.408 76.138 37.408ZM76.138 32.818C77.702 32.818 78.9147 32.308 79.776 31.288C80.66 30.268 81.102 28.806 81.102 26.902V23.366C81.102 21.462 80.66 20 79.776 18.98C78.9147 17.96 77.702 17.45 76.138 17.45C74.574 17.45 73.35 17.96 72.466 18.98C71.6047 20 71.174 21.462 71.174 23.366V26.902C71.174 28.806 71.6047 30.268 72.466 31.288C73.35 32.308 74.574 32.818 76.138 32.818ZM90.0575 19.15H95.0895V22.142H95.2595C95.5088 21.1447 96.0755 20.3287 96.9595 19.694C97.8662 19.0593 98.8975 18.742 100.053 18.742C102.32 18.742 104.031 19.5353 105.187 21.122C106.343 22.7087 106.921 25.0207 106.921 28.058C106.921 31.0953 106.343 33.4187 105.187 35.028C104.031 36.6147 102.32 37.408 100.053 37.408C99.4642 37.408 98.9088 37.3173 98.3875 37.136C97.8662 36.9773 97.3902 36.7507 96.9595 36.456C96.5515 36.1387 96.2002 35.776 95.9055 35.368C95.6108 34.9373 95.3955 34.484 95.2595 34.008H95.0895V43.8H90.0575V19.15ZM98.3875 33.328C99.3395 33.328 100.121 32.9993 100.733 32.342C101.368 31.662 101.685 30.7553 101.685 29.622V26.528C101.685 25.3947 101.368 24.4993 100.733 23.842C100.121 23.162 99.3395 22.822 98.3875 22.822C97.4355 22.822 96.6422 23.06 96.0075 23.536C95.3955 23.9893 95.0895 24.624 95.0895 25.44V30.71C95.0895 31.526 95.3955 32.172 96.0075 32.648C96.6422 33.1013 97.4355 33.328 98.3875 33.328ZM117.425 37.408C116.11 37.408 114.932 37.1927 113.889 36.762C112.869 36.3313 111.996 35.708 111.271 34.892C110.568 34.076 110.024 33.09 109.639 31.934C109.254 30.778 109.061 29.486 109.061 28.058C109.061 26.63 109.254 25.338 109.639 24.182C110.024 23.026 110.568 22.0513 111.271 21.258C111.996 20.442 112.869 19.8187 113.889 19.388C114.932 18.9573 116.11 18.742 117.425 18.742C118.74 18.742 119.907 18.9573 120.927 19.388C121.97 19.8187 122.842 20.442 123.545 21.258C124.27 22.0513 124.826 23.026 125.211 24.182C125.596 25.338 125.789 26.63 125.789 28.058C125.789 29.486 125.596 30.778 125.211 31.934C124.826 33.09 124.27 34.076 123.545 34.892C122.842 35.708 121.97 36.3313 120.927 36.762C119.907 37.1927 118.74 37.408 117.425 37.408ZM117.425 33.43C118.422 33.43 119.193 33.124 119.737 32.512C120.281 31.9 120.553 31.0273 120.553 29.894V26.256C120.553 25.1227 120.281 24.25 119.737 23.638C119.193 23.026 118.422 22.72 117.425 22.72C116.428 22.72 115.657 23.026 115.113 23.638C114.569 24.25 114.297 25.1227 114.297 26.256V29.894C114.297 31.0273 114.569 31.9 115.113 32.512C115.657 33.124 116.428 33.43 117.425 33.43ZM127.529 37V33.022L136.403 23.06H127.835V19.15H142.251V23.094L133.343 33.09H142.489V37H127.529ZM156.202 34.008H156.032C155.896 34.484 155.681 34.9373 155.386 35.368C155.092 35.776 154.729 36.1387 154.298 36.456C153.89 36.7507 153.414 36.9773 152.87 37.136C152.349 37.3173 151.805 37.408 151.238 37.408C148.972 37.408 147.26 36.6147 146.104 35.028C144.948 33.4187 144.37 31.0953 144.37 28.058C144.37 25.0207 144.948 22.7087 146.104 21.122C147.26 19.5353 148.972 18.742 151.238 18.742C152.394 18.742 153.414 19.0593 154.298 19.694C155.205 20.3287 155.783 21.1447 156.032 22.142H156.202V11.84H161.234V37H156.202V34.008ZM152.904 33.328C153.856 33.328 154.638 33.1013 155.25 32.648C155.885 32.172 156.202 31.526 156.202 30.71V25.44C156.202 24.624 155.885 23.9893 155.25 23.536C154.638 23.06 153.856 22.822 152.904 22.822C151.952 22.822 151.159 23.162 150.524 23.842C149.912 24.4993 149.606 25.3947 149.606 26.528V29.622C149.606 30.7553 149.912 31.662 150.524 32.342C151.159 32.9993 151.952 33.328 152.904 33.328ZM178.572 37C177.665 37 176.906 36.7167 176.294 36.15C175.705 35.5833 175.331 34.824 175.172 33.872H174.968C174.696 35.028 174.095 35.912 173.166 36.524C172.237 37.1133 171.092 37.408 169.732 37.408C167.941 37.408 166.57 36.932 165.618 35.98C164.666 35.028 164.19 33.77 164.19 32.206C164.19 30.3247 164.87 28.9307 166.23 28.024C167.613 27.0947 169.483 26.63 171.84 26.63H174.662V25.508C174.662 24.6467 174.435 23.9667 173.982 23.468C173.529 22.9467 172.769 22.686 171.704 22.686C170.707 22.686 169.913 22.9013 169.324 23.332C168.735 23.7627 168.247 24.25 167.862 24.794L164.87 22.142C165.595 21.0767 166.502 20.2493 167.59 19.66C168.701 19.048 170.197 18.742 172.078 18.742C174.617 18.742 176.521 19.2973 177.79 20.408C179.059 21.5187 179.694 23.1393 179.694 25.27V33.09H181.36V37H178.572ZM171.602 33.906C172.441 33.906 173.155 33.7247 173.744 33.362C174.356 32.9993 174.662 32.41 174.662 31.594V29.486H172.214C170.242 29.486 169.256 30.1547 169.256 31.492V32.002C169.256 32.6593 169.46 33.1467 169.868 33.464C170.276 33.7587 170.854 33.906 171.602 33.906ZM184.177 11.84H189.209V26.698H189.413L191.623 23.4L195.193 19.15H200.769L194.819 25.984L201.449 37H195.465L191.453 29.452L189.209 31.968V37H184.177V11.84ZM216.432 37C215.526 37 214.766 36.7167 214.154 36.15C213.565 35.5833 213.191 34.824 213.032 33.872H212.828C212.556 35.028 211.956 35.912 211.026 36.524C210.097 37.1133 208.952 37.408 207.592 37.408C205.802 37.408 204.43 36.932 203.478 35.98C202.526 35.028 202.05 33.77 202.05 32.206C202.05 30.3247 202.73 28.9307 204.09 28.024C205.473 27.0947 207.343 26.63 209.7 26.63H212.522V25.508C212.522 24.6467 212.296 23.9667 211.842 23.468C211.389 22.9467 210.63 22.686 209.564 22.686C208.567 22.686 207.774 22.9013 207.184 23.332C206.595 23.7627 206.108 24.25 205.722 24.794L202.73 22.142C203.456 21.0767 204.362 20.2493 205.45 19.66C206.561 19.048 208.057 18.742 209.938 18.742C212.477 18.742 214.381 19.2973 215.65 20.408C216.92 21.5187 217.554 23.1393 217.554 25.27V33.09H219.22V37H216.432ZM209.462 33.906C210.301 33.906 211.015 33.7247 211.604 33.362C212.216 32.9993 212.522 32.41 212.522 31.594V29.486H210.074C208.102 29.486 207.116 30.1547 207.116 31.492V32.002C207.116 32.6593 207.32 33.1467 207.728 33.464C208.136 33.7587 208.714 33.906 209.462 33.906Z" fill="#9590A0"/>
<path d="M24.0023 37.408C22.4383 37.408 21.0103 37.1473 19.7183 36.626C18.4263 36.1047 17.3269 35.334 16.4203 34.314C15.5136 33.2713 14.8109 31.9907 14.3123 30.472C13.8136 28.9307 13.5643 27.1513 13.5643 25.134C13.5643 23.1167 13.8136 21.3487 14.3123 19.83C14.8109 18.2887 15.5136 17.008 16.4203 15.988C17.3269 14.9453 18.4263 14.1633 19.7183 13.642C21.0103 13.1207 22.4383 12.86 24.0023 12.86C25.5663 12.86 26.9943 13.1207 28.2863 13.642C29.5783 14.1633 30.6776 14.9453 31.5843 15.988C32.4909 17.008 33.1936 18.2887 33.6923 19.83C34.1909 21.3487 34.4403 23.1167 34.4403 25.134C34.4403 27.1513 34.1909 28.9307 33.6923 30.472C33.1936 31.9907 32.4909 33.2713 31.5843 34.314C30.6776 35.334 29.5783 36.1047 28.2863 36.626C26.9943 37.1473 25.5663 37.408 24.0023 37.408ZM24.0023 32.818C25.5663 32.818 26.7789 32.308 27.6403 31.288C28.5243 30.268 28.9663 28.806 28.9663 26.902V23.366C28.9663 21.462 28.5243 20 27.6403 18.98C26.7789 17.96 25.5663 17.45 24.0023 17.45C22.4383 17.45 21.2143 17.96 20.3303 18.98C19.4689 20 19.0383 21.462 19.0383 23.366V26.902C19.0383 28.806 19.4689 30.268 20.3303 31.288C21.2143 32.308 22.4383 32.818 24.0023 32.818Z" fill="black"/>
</g>
<defs>
<clipPath id="clip0">
<rect width="237" height="48" fill="white"/>
</clipPath>
</defs>
</svg>
